<?xml version="1.0" encoding="utf-8"?>
<!-- Generator: Adobe Illustrator 21.0.0, SVG Export Plug-In . SVG Version: 6.00 Build 0)  -->
<svg version="1.1" id="Layer_1" xmlns="http://www.w3.org/2000/svg" xmlns:xlink="http://www.w3.org/1999/xlink" x="0px" y="0px"
	 viewBox="0 0 1211 370" style="enable-background:new 0 0 1211 370;" xml:space="preserve">
<style type="text/css">
	.st0{fill:#FFFFFF;}
</style>
<path class="st0" d="M0,318c0,2,6,5.9,7.5,6.9c34.3,22.6,70.4,4.6,99.9-16.1c58.4-40.9,132.8-26.7,198-14.7
	c22.1,4.1,44.8,8.8,67.2,4.6c31.5-5.9,55-31.3,78-51.4c26.7-23.4,56.3-45.1,87-62.8c12.9-7.4,26.2-14,40.1-19.3
	c75.8-29,152.8,1.9,227.6,18.9c4,0.9,8,1.8,11.9,2.6c85.3,18.5,132.7-45,185.5-99.5c29.2-30.1,66.6-51.8,111.2-65.5
	c22.1-6.8,45-11.1,68.6-12.7c9.5-0.7,19-1.3,28.5-1.9c0,120.9,0,241.9,0,362.9c-403.8,0-807.5,0-1211.2,0C0,370,0,318,0,318z"/>
</svg>
